<svg width="60" height="57" viewBox="0 0 60 57" fill="none" xmlns="http://www.w3.org/2000/svg">
<g style="mix-blend-mode:screen">
<g filter="url(#filter0_i_236_1532)">
<path d="M47.8336 19.1792L54.1665 8.19436L51.6053 3.11705L47.1866 5.04558L42.9426 17.1712L43.9316 22.0166L47.8336 19.1792ZM10.6655 14.9046L11.2068 10.6983L5.02891 1.64377L0.922702 0L0.57823 4.45992L6.75611 13.5115L10.6655 14.9046ZM56.4767 23.4142L47.9148 25.2268L36.895 51.088L39.3111 56.3506L46.6576 55.864L60 31.2687L56.4767 23.4142ZM3.03861 20.6899L0 30.6142L15.7953 55.0024L21.4639 56.7767L22.9869 52.2016L12.8404 21.3237L3.03861 20.6899Z" fill="url(#paint0_linear_236_1532)"/>
</g>
<g filter="url(#filter1_i_236_1532)">
<path d="M19.125 8.52362L29.6109 0L39.932 8.84454L36.2686 42.4415L29.8569 46.3609L23.8021 42.2001L19.125 8.52362Z" fill="url(#paint1_linear_236_1532)"/>
</g>
</g>
<defs>
<filter id="filter0_i_236_1532" x="0" y="0" width="60" height="56.7767" filterUnits="userSpaceOnUse" color-interpolation-filters="sRGB">
<feFlood flood-opacity="0" result="BackgroundImageFix"/>
<feBlend mode="normal" in="SourceGraphic" in2="BackgroundImageFix" result="shape"/>
<feColorMatrix in="SourceAlpha" type="matrix" values="0 0 0 0 0 0 0 0 0 0 0 0 0 0 0 0 0 0 127 0" result="hardAlpha"/>
<feOffset/>
<feGaussianBlur stdDeviation="2"/>
<feComposite in2="hardAlpha" operator="arithmetic" k2="-1" k3="1"/>
<feColorMatrix type="matrix" values="0 0 0 0 0.6125 0 0 0 0 0.667857 0 0 0 0 1 0 0 0 1 0"/>
<feBlend mode="normal" in2="shape" result="effect1_innerShadow_236_1532"/>
</filter>
<filter id="filter1_i_236_1532" x="19.125" y="0" width="20.8066" height="46.3609" filterUnits="userSpaceOnUse" color-interpolation-filters="sRGB">
<feFlood flood-opacity="0" result="BackgroundImageFix"/>
<feBlend mode="normal" in="SourceGraphic" in2="BackgroundImageFix" result="shape"/>
<feColorMatrix in="SourceAlpha" type="matrix" values="0 0 0 0 0 0 0 0 0 0 0 0 0 0 0 0 0 0 127 0" result="hardAlpha"/>
<feOffset/>
<feGaussianBlur stdDeviation="2"/>
<feComposite in2="hardAlpha" operator="arithmetic" k2="-1" k3="1"/>
<feColorMatrix type="matrix" values="0 0 0 0 0.6125 0 0 0 0 0.667857 0 0 0 0 1 0 0 0 1 0"/>
<feBlend mode="normal" in2="shape" result="effect1_innerShadow_236_1532"/>
</filter>
<linearGradient id="paint0_linear_236_1532" x1="30" y1="0" x2="30" y2="56.7767" gradientUnits="userSpaceOnUse">
<stop stop-color="#3A4272"/>
<stop offset="1" stop-color="#6581CB"/>
</linearGradient>
<linearGradient id="paint1_linear_236_1532" x1="29.5285" y1="0" x2="29.5285" y2="46.3609" gradientUnits="userSpaceOnUse">
<stop stop-color="#3A4272"/>
<stop offset="1" stop-color="#6581CB"/>
</linearGradient>
</defs>
</svg>
