<svg width="61" height="60" viewBox="0 0 61 60" fill="none" xmlns="http://www.w3.org/2000/svg">
<g filter="url(#filter0_i_238_3204)">
<path d="M46.3386 41.6433L42.3449 37.9158C56.6366 22.8906 63.891 7.00719 58.6085 1.72475C54.8942 -1.98943 45.9391 0.494064 35.7264 7.26384L35.7459 7.24361C31.9836 9.73417 28.0806 12.7884 24.1897 16.3388C24.0557 16.4607 23.922 16.5836 23.7883 16.7067C23.7776 16.7165 23.7669 16.7264 23.7562 16.7362C23.0746 17.3636 22.394 18.0052 21.7156 18.6617L18.0394 15.2305C18.7775 8.54467 15.3109 5.57165 9.51364 0.876774L9.13952 6.92396L5.41095 3.44381L3.98979 4.86491L7.64488 8.78096L1.21175 9.17872C6.30092 15.4403 9.16097 17.4965 15.7166 17.4294L19.2054 21.1673C4.35812 36.4477 -3.33281 52.8968 2.05218 58.2814C7.35491 63.5837 23.3859 56.2068 38.4653 41.8031L42.3183 45.9312L33.3309 48.8135L59.0162 58.7349L49.0945 33.0495L46.3387 41.6432L46.3386 41.6433ZM54.3967 9.82265C56.7603 12.186 52.6437 20.338 44.8384 29.6485C45.4565 27.9183 45.4616 26.5329 44.7133 25.7848C43.0997 24.1714 38.5239 26.0608 33.915 30.0477L28.4255 24.9242C40.0917 13.654 51.5228 6.94882 54.3967 9.82265ZM10.2011 54.0185C7.31311 51.1309 14.098 39.6021 25.4675 27.8769L30.5642 33.3376C26.2647 38.1197 24.1546 42.996 25.8286 44.6696C26.5608 45.4016 27.9058 45.4093 29.5873 44.8271C20.461 52.3943 12.5272 56.345 10.2008 54.0187L10.2011 54.0185Z" fill="url(#paint0_linear_238_3204)"/>
</g>
<defs>
<filter id="filter0_i_238_3204" x="0.333252" y="0" width="60" height="60.0001" filterUnits="userSpaceOnUse" color-interpolation-filters="sRGB">
<feFlood flood-opacity="0" result="BackgroundImageFix"/>
<feBlend mode="normal" in="SourceGraphic" in2="BackgroundImageFix" result="shape"/>
<feColorMatrix in="SourceAlpha" type="matrix" values="0 0 0 0 0 0 0 0 0 0 0 0 0 0 0 0 0 0 127 0" result="hardAlpha"/>
<feOffset/>
<feGaussianBlur stdDeviation="2"/>
<feComposite in2="hardAlpha" operator="arithmetic" k2="-1" k3="1"/>
<feColorMatrix type="matrix" values="0 0 0 0 0.6125 0 0 0 0 0.667857 0 0 0 0 1 0 0 0 1 0"/>
<feBlend mode="normal" in2="shape" result="effect1_innerShadow_238_3204"/>
</filter>
<linearGradient id="paint0_linear_238_3204" x1="30.3333" y1="0" x2="30.3333" y2="60.0001" gradientUnits="userSpaceOnUse">
<stop stop-color="#3A4272"/>
<stop offset="1" stop-color="#6581CB"/>
</linearGradient>
</defs>
</svg>
