<svg width="28" height="27" viewBox="0 0 28 27" fill="none" xmlns="http://www.w3.org/2000/svg">
<path d="M4 5.93628C4 4.47759 4.57946 3.07864 5.61091 2.04719C6.64236 1.01574 8.04131 0.436279 9.5 0.436279C10.9587 0.436279 12.3576 1.01574 13.3891 2.04719C14.4205 3.07864 15 4.47759 15 5.93628C15 7.39497 14.4205 8.79392 13.3891 9.82537C12.3576 10.8568 10.9587 11.4363 9.5 11.4363C8.04131 11.4363 6.64236 10.8568 5.61091 9.82537C4.57946 8.79392 4 7.39497 4 5.93628ZM17 8.93628C17 8.34533 17.1164 7.76017 17.3425 7.2142C17.5687 6.66824 17.9002 6.17216 18.318 5.7543C18.7359 5.33643 19.232 5.00497 19.7779 4.77882C20.3239 4.55268 20.9091 4.43628 21.5 4.43628C22.091 4.43628 22.6761 4.55268 23.2221 4.77882C23.768 5.00497 24.2641 5.33643 24.682 5.7543C25.0998 6.17216 25.4313 6.66824 25.6575 7.2142C25.8836 7.76017 26 8.34533 26 8.93628C26 10.1298 25.5259 11.2743 24.682 12.1183C23.8381 12.9622 22.6935 13.4363 21.5 13.4363C20.3065 13.4363 19.1619 12.9622 18.318 12.1183C17.4741 11.2743 17 10.1298 17 8.93628ZM0 22.9363C3.75443e-08 20.4167 1.00089 18.0004 2.78249 16.2188C4.56408 14.4372 6.98044 13.4363 9.5 13.4363C12.0196 13.4363 14.4359 14.4372 16.2175 16.2188C17.9991 18.0004 19 20.4167 19 22.9363V22.9403L18.9987 23.0989C18.9958 23.2685 18.9499 23.4346 18.8653 23.5815C18.7806 23.7285 18.66 23.8515 18.5147 23.9389C15.7936 25.5776 12.6764 26.4411 9.5 26.4363C6.204 26.4363 3.11867 25.5243 0.486667 23.9389C0.341135 23.8516 0.220223 23.7287 0.135315 23.5817C0.0504083 23.4348 0.00430045 23.2686 0.0013334 23.0989L0 22.9363ZM21 22.9403L20.9987 23.1323C20.9912 23.5767 20.8851 24.0139 20.688 24.4123C23.0156 24.5558 25.3405 24.0918 27.4347 23.0656C27.5966 22.9865 27.7342 22.865 27.8327 22.7141C27.9313 22.5631 27.9873 22.3884 27.9947 22.2083C28.0417 21.0899 27.7992 19.9784 27.2906 18.9813C26.7819 17.9842 26.0244 17.1353 25.0914 16.5169C24.1584 15.8986 23.0815 15.5316 21.965 15.4516C20.8485 15.3716 19.7303 15.5812 18.7187 16.0603C20.2029 18.0451 21.003 20.4579 20.9987 22.9363L21 22.9403Z" fill="#7644F2"/>
</svg>
