<svg width="28" height="23" viewBox="0 0 28 23" fill="none" xmlns="http://www.w3.org/2000/svg">
<path fill-rule="evenodd" clip-rule="evenodd" d="M0 2.93628C0 1.55495 1.12 0.436279 2.5 0.436279H25.5C26.88 0.436279 28 1.55628 28 2.93628V19.9363C28 21.3163 26.88 22.4363 25.5 22.4363H2.5C1.83696 22.4363 1.20107 22.1729 0.732233 21.704C0.263392 21.2352 0 20.5993 0 19.9363V2.93628ZM26 7.93628C26 7.80367 25.9473 7.67649 25.8536 7.58273C25.7598 7.48896 25.6326 7.43628 25.5 7.43628H15.5C15.3674 7.43628 15.2402 7.48896 15.1464 7.58273C15.0527 7.67649 15 7.80367 15 7.93628V9.93628C15 10.2123 15.224 10.4363 15.5 10.4363H25.5C25.6326 10.4363 25.7598 10.3836 25.8536 10.2898C25.9473 10.1961 26 10.0689 26 9.93628V7.93628ZM26 12.9363C26 12.8037 25.9473 12.6765 25.8536 12.5827C25.7598 12.489 25.6326 12.4363 25.5 12.4363H15.5C15.3674 12.4363 15.2402 12.489 15.1464 12.5827C15.0527 12.6765 15 12.8037 15 12.9363V14.9363C15 15.2123 15.224 15.4363 15.5 15.4363H25.5C25.6326 15.4363 25.7598 15.3836 25.8536 15.2898C25.9473 15.1961 26 15.0689 26 14.9363V12.9363ZM26 17.9363C26 17.8037 25.9473 17.6765 25.8536 17.5827C25.7598 17.489 25.6326 17.4363 25.5 17.4363H15.5C15.3674 17.4363 15.2402 17.489 15.1464 17.5827C15.0527 17.6765 15 17.8037 15 17.9363V19.9363C15 20.2123 15.224 20.4363 15.5 20.4363H25.5C25.6326 20.4363 25.7598 20.3836 25.8536 20.2898C25.9473 20.1961 26 20.0689 26 19.9363V17.9363ZM12.5 20.4363C12.6326 20.4363 12.7598 20.3836 12.8536 20.2898C12.9473 20.1961 13 20.0689 13 19.9363V17.9363C13 17.8037 12.9473 17.6765 12.8536 17.5827C12.7598 17.489 12.6326 17.4363 12.5 17.4363H2.5C2.36739 17.4363 2.24021 17.489 2.14645 17.5827C2.05268 17.6765 2 17.8037 2 17.9363V19.9363C2 20.2123 2.224 20.4363 2.5 20.4363H12.5ZM2.5 15.4363H12.5C12.6326 15.4363 12.7598 15.3836 12.8536 15.2898C12.9473 15.1961 13 15.0689 13 14.9363V12.9363C13 12.8037 12.9473 12.6765 12.8536 12.5827C12.7598 12.489 12.6326 12.4363 12.5 12.4363H2.5C2.36739 12.4363 2.24021 12.489 2.14645 12.5827C2.05268 12.6765 2 12.8037 2 12.9363V14.9363C2 15.2123 2.224 15.4363 2.5 15.4363ZM2.5 10.4363H12.5C12.6326 10.4363 12.7598 10.3836 12.8536 10.2898C12.9473 10.1961 13 10.0689 13 9.93628V7.93628C13 7.80367 12.9473 7.67649 12.8536 7.58273C12.7598 7.48896 12.6326 7.43628 12.5 7.43628H2.5C2.36739 7.43628 2.24021 7.48896 2.14645 7.58273C2.05268 7.67649 2 7.80367 2 7.93628V9.93628C2 10.2123 2.224 10.4363 2.5 10.4363Z" fill="#7644F2"/>
</svg>
